<?xml version="1.0" encoding="UTF-8"?><svg id="Logo_2" xmlns="http://www.w3.org/2000/svg" xmlns:xlink="http://www.w3.org/1999/xlink" viewBox="0 0 916.69 916.69"><defs><style>.cls-1{fill:url(#Dégradé_sans_nom_36);}.cls-2{fill:url(#Dégradé_sans_nom_50);}.cls-3{fill:url(#Dégradé_sans_nom_43);}</style><linearGradient id="Dégradé_sans_nom_50" x1="312.97" y1="423.31" x2="606.35" y2="716.7" gradientUnits="userSpaceOnUse"><stop offset="0" stop-color="#008bd2"/><stop offset="1" stop-color="#128acb"/></linearGradient><linearGradient id="Dégradé_sans_nom_36" x1="312.11" y1="198.89" x2="606.65" y2="493.43" gradientUnits="userSpaceOnUse"><stop offset="0" stop-color="#128acb"/><stop offset="1" stop-color="#008bd2"/></linearGradient><linearGradient id="Dégradé_sans_nom_43" x1="134.25" y1="134.25" x2="782.45" y2="782.45" gradientUnits="userSpaceOnUse"><stop offset="0" stop-color="#128acb"/><stop offset="1" stop-color="#008bd2"/></linearGradient></defs><g id="Initiales"><polygon id="V" class="cls-2" points="661.91 480.93 460.53 683.99 254 482.27 164.62 574 460.58 862.47 752.07 563.38 661.91 480.93"/><polygon id="G" class="cls-1" points="745.95 341.39 561.61 158.63 377.68 345.41 454.6 423.25 558.17 323.79 581.89 345.66 457.7 462.13 336.62 345.58 537.48 134.04 456.78 54.23 171.3 344.57 460.97 639.1 745.95 341.39"/></g><path id="Cerceau" class="cls-3" d="m458.35,0C205.21,0,0,205.21,0,458.35s205.21,458.35,458.35,458.35,458.35-205.21,458.35-458.35S711.49,0,458.35,0Zm0,898.01c-242.82,0-439.67-196.85-439.67-439.67S215.53,18.68,458.35,18.68s439.67,196.85,439.67,439.67-196.85,439.67-439.67,439.67Z"/></svg>